<svg width="34" height="34" viewBox="0 0 34 34" xmlns="http://www.w3.org/2000/svg">
<circle cx="17" cy="17" r="17" fill="#B9F8CF"/>
<path d="M9 14C8.71667 14 8.47917 13.9042 8.2875 13.7125C8.09583 13.5208 8 13.2833 8 13C8 12.7167 8.09583 12.4792 8.2875 12.2875C8.47917 12.0958 8.71667 12 9 12H12C12.55 12 13.0208 12.1958 13.4125 12.5875C13.8042 12.9792 14 13.45 14 14H9ZM11 23C11.8333 23 12.5417 22.7083 13.125 22.125C13.7083 21.5417 14 20.8333 14 20C14 19.1667 13.7083 18.4583 13.125 17.875C12.5417 17.2917 11.8333 17 11 17C10.1667 17 9.45833 17.2917 8.875 17.875C8.29167 18.4583 8 19.1667 8 20C8 20.8333 8.29167 21.5417 8.875 22.125C9.45833 22.7083 10.1667 23 11 23ZM24.5 23C24.9167 23 25.2708 22.8542 25.5625 22.5625C25.8542 22.2708 26 21.9167 26 21.5C26 21.0833 25.8542 20.7292 25.5625 20.4375C25.2708 20.1458 24.9167 20 24.5 20C24.0833 20 23.7292 20.1458 23.4375 20.4375C23.1458 20.7292 23 21.0833 23 21.5C23 21.9167 23.1458 22.2708 23.4375 22.5625C23.7292 22.8542 24.0833 23 24.5 23ZM11 21.5C10.5833 21.5 10.2292 21.3542 9.9375 21.0625C9.64583 20.7708 9.5 20.4167 9.5 20C9.5 19.5833 9.64583 19.2292 9.9375 18.9375C10.2292 18.6458 10.5833 18.5 11 18.5C11.4167 18.5 11.7708 18.6458 12.0625 18.9375C12.3542 19.2292 12.5 19.5833 12.5 20C12.5 20.4167 12.3542 20.7708 12.0625 21.0625C11.7708 21.3542 11.4167 21.5 11 21.5ZM25 18.025C25.4333 18.1083 25.7917 18.2208 26.075 18.3625C26.3583 18.5042 26.6667 18.7333 27 19.05V13C27 12.45 26.8042 11.9792 26.4125 11.5875C26.0208 11.1958 25.55 11 25 11H18.7L17.65 9.9L19.05 8.5L18.35 7.8L14.8 11.35L15.55 12.05L16.95 10.65L18 11.7V14C18 14.55 17.8042 15.0208 17.4125 15.4125C17.0208 15.8042 16.55 16 16 16H13.975C14.3583 16.2833 14.6667 16.575 14.9 16.875C15.1333 17.175 15.3667 17.55 15.6 18H16C17.1 18 18.0417 17.6083 18.825 16.825C19.6083 16.0417 20 15.1 20 14V13H25V18.025ZM21.025 21C21.125 20.55 21.2458 20.1875 21.3875 19.9125C21.5292 19.6375 21.75 19.3333 22.05 19H15.9C15.9667 19.3833 16 19.7167 16 20C16 20.2833 15.9667 20.6167 15.9 21H21.025ZM24.5 25C23.5333 25 22.7083 24.6583 22.025 23.975C21.3417 23.2917 21 22.4667 21 21.5C21 20.5333 21.3417 19.7083 22.025 19.025C22.7083 18.3417 23.5333 18 24.5 18C25.4667 18 26.2917 18.3417 26.975 19.025C27.6583 19.7083 28 20.5333 28 21.5C28 22.4667 27.6583 23.2917 26.975 23.975C26.2917 24.6583 25.4667 25 24.5 25ZM11 25C9.61667 25 8.4375 24.5125 7.4625 23.5375C6.4875 22.5625 6 21.3833 6 20C6 18.6167 6.4875 17.4375 7.4625 16.4625C8.4375 15.4875 9.61667 15 11 15C12.3833 15 13.5625 15.4875 14.5375 16.4625C15.5125 17.4375 16 18.6167 16 20C16 21.3833 15.5125 22.5625 14.5375 23.5375C13.5625 24.5125 12.3833 25 11 25Z" fill="black"/>
</svg>
