<svg width="34" height="34" viewBox="0 0 34 34" xmlns="http://www.w3.org/2000/svg">
<circle cx="17" cy="17" r="17" fill="#BEDBFF"/>
<path d="M7 25V23H17V25H7ZM10 22C9.45 22 8.97917 21.8042 8.5875 21.4125C8.19583 21.0208 8 20.55 8 20V11C8 10.45 8.19583 9.97917 8.5875 9.5875C8.97917 9.19583 9.45 9 10 9H24C24.55 9 25.0208 9.19583 25.4125 9.5875C25.8042 9.97917 26 10.45 26 11H10V20H17V22H10ZM25 23V15H21V23H25ZM20.5 25C20.0833 25 19.7292 24.8542 19.4375 24.5625C19.1458 24.2708 19 23.9167 19 23.5V14.5C19 14.0833 19.1458 13.7292 19.4375 13.4375C19.7292 13.1458 20.0833 13 20.5 13H25.5C25.9167 13 26.2708 13.1458 26.5625 13.4375C26.8542 13.7292 27 14.0833 27 14.5V23.5C27 23.9167 26.8542 24.2708 26.5625 24.5625C26.2708 24.8542 25.9167 25 25.5 25H20.5ZM23 17.5C23.2167 17.5 23.3958 17.425 23.5375 17.275C23.6792 17.125 23.75 16.95 23.75 16.75C23.75 16.5333 23.6792 16.3542 23.5375 16.2125C23.3958 16.0708 23.2167 16 23 16C22.8 16 22.625 16.0708 22.475 16.2125C22.325 16.3542 22.25 16.5333 22.25 16.75C22.25 16.95 22.325 17.125 22.475 17.275C22.625 17.425 22.8 17.5 23 17.5Z" fill="black"/>
</svg>
