<svg width="34" height="34" viewBox="0 0 34 34" xmlns="http://www.w3.org/2000/svg">
<circle cx="17" cy="17" r="17" fill="#FDA5D5"/>
<path d="M10 27L6 16L11 13V7H15V13L20 16L16 27H10ZM22 27C21.7167 27 21.4792 26.9042 21.2875 26.7125C21.0958 26.5208 21 26.2833 21 26C21 25.7167 21.0958 25.4792 21.2875 25.2875C21.4792 25.0958 21.7167 25 22 25H25V23H22C21.7167 23 21.4792 22.9042 21.2875 22.7125C21.0958 22.5208 21 22.2833 21 22C21 21.7167 21.0958 21.4792 21.2875 21.2875C21.4792 21.0958 21.7167 21 22 21H25V19H22C21.7167 19 21.4792 18.9042 21.2875 18.7125C21.0958 18.5208 21 18.2833 21 18C21 17.7167 21.0958 17.4792 21.2875 17.2875C21.4792 17.0958 21.7167 17 22 17H25V15H22C21.7167 15 21.4792 14.9042 21.2875 14.7125C21.0958 14.5208 21 14.2833 21 14C21 13.7167 21.0958 13.4792 21.2875 13.2875C21.4792 13.0958 21.7167 13 22 13H25V11H22C21.7167 11 21.4792 10.9042 21.2875 10.7125C21.0958 10.5208 21 10.2833 21 10C21 9.71667 21.0958 9.47917 21.2875 9.2875C21.4792 9.09583 21.7167 9 22 9H26C26.55 9 27.0208 9.19583 27.4125 9.5875C27.8042 9.97917 28 10.45 28 11V25C28 25.55 27.8042 26.0208 27.4125 26.4125C27.0208 26.8042 26.55 27 26 27H22ZM11.4 25H14.6L17.55 16.85L14.45 15H11.55L8.45 16.85L11.4 25Z" fill="black"/>
</svg>
