<svg width="34" height="34" viewBox="0 0 34 34" xmlns="http://www.w3.org/2000/svg">
<circle cx="17" cy="17" r="17" fill="#96F7E4"/>
<path d="M8.99999 25V15.625L7.19999 17L6.02499 15.425L17 7L28 15.4L26.8 17L17 9.5L11 14.1V23H15V25H8.99999ZM22.5 27.375C21.8 27.8583 21.0292 28.0625 20.1875 27.9875C19.3458 27.9125 18.625 27.575 18.025 26.975C17.425 26.375 17.0875 25.6542 17.0125 24.8125C16.9375 23.9708 17.1417 23.2 17.625 22.5C17.1417 21.8 16.9375 21.0292 17.0125 20.1875C17.0875 19.3458 17.425 18.625 18.025 18.025C18.625 17.425 19.3458 17.0875 20.1875 17.0125C21.0292 16.9375 21.8 17.1417 22.5 17.625C23.2 17.1417 23.9708 16.9375 24.8125 17.0125C25.6542 17.0875 26.375 17.425 26.975 18.025C27.575 18.625 27.9125 19.3458 27.9875 20.1875C28.0625 21.0292 27.8583 21.8 27.375 22.5C27.8583 23.2 28.0625 23.9708 27.9875 24.8125C27.9125 25.6542 27.575 26.375 26.975 26.975C26.375 27.575 25.6542 27.9125 24.8125 27.9875C23.9708 28.0625 23.2 27.8583 22.5 27.375ZM22.5 24.925L23.65 25.725C23.95 25.9417 24.275 26.0333 24.625 26C24.975 25.9667 25.2833 25.8167 25.55 25.55C25.8167 25.2833 25.9667 24.975 26 24.625C26.0333 24.275 25.9417 23.95 25.725 23.65L24.925 22.5L25.725 21.35C25.9417 21.05 26.0333 20.725 26 20.375C25.9667 20.025 25.8167 19.7167 25.55 19.45C25.2833 19.1833 24.975 19.0333 24.625 19C24.275 18.9667 23.95 19.0583 23.65 19.275L22.5 20.075L21.35 19.275C21.05 19.0583 20.725 18.9667 20.375 19C20.025 19.0333 19.7167 19.1833 19.45 19.45C19.1833 19.7167 19.0333 20.025 19 20.375C18.9667 20.725 19.0583 21.05 19.275 21.35L20.075 22.5L19.275 23.65C19.0583 23.95 18.9667 24.275 19 24.625C19.0333 24.975 19.1833 25.2833 19.45 25.55C19.7167 25.8167 20.025 25.9667 20.375 26C20.725 26.0333 21.05 25.9417 21.35 25.725L22.5 24.925ZM22.5 23.75C22.85 23.75 23.1458 23.6292 23.3875 23.3875C23.6292 23.1458 23.75 22.85 23.75 22.5C23.75 22.15 23.6292 21.8542 23.3875 21.6125C23.1458 21.3708 22.85 21.25 22.5 21.25C22.15 21.25 21.8542 21.3708 21.6125 21.6125C21.3708 21.8542 21.25 22.15 21.25 22.5C21.25 22.85 21.3708 23.1458 21.6125 23.3875C21.8542 23.6292 22.15 23.75 22.5 23.75Z" fill="black"/>
</svg>
