<svg width="34" height="34" viewBox="0 0 34 34" xmlns="http://www.w3.org/2000/svg">
<circle cx="17" cy="17" r="17" fill="#E5E7EB"/>
<path d="M10.85 17L10.55 15.5C10.35 15.4167 10.1625 15.3292 9.9875 15.2375C9.8125 15.1458 9.63333 15.0333 9.45 14.9L8 15.35L7 13.65L8.15 12.65C8.11667 12.4333 8.1 12.2167 8.1 12C8.1 11.7833 8.11667 11.5667 8.15 11.35L7 10.35L8 8.65L9.45 9.1C9.63333 8.96667 9.8125 8.85417 9.9875 8.7625C10.1625 8.67083 10.35 8.58333 10.55 8.5L10.85 7H12.85L13.15 8.5C13.35 8.58333 13.5375 8.67083 13.7125 8.7625C13.8875 8.85417 14.0667 8.96667 14.25 9.1L15.7 8.65L16.7 10.35L15.55 11.35C15.5833 11.5667 15.6 11.7833 15.6 12C15.6 12.2167 15.5833 12.4333 15.55 12.65L16.7 13.65L15.7 15.35L14.25 14.9C14.0667 15.0333 13.8875 15.1458 13.7125 15.2375C13.5375 15.3292 13.35 15.4167 13.15 15.5L12.85 17H10.85ZM11.85 14C12.4 14 12.8708 13.8042 13.2625 13.4125C13.6542 13.0208 13.85 12.55 13.85 12C13.85 11.45 13.6542 10.9792 13.2625 10.5875C12.8708 10.1958 12.4 10 11.85 10C11.3 10 10.8292 10.1958 10.4375 10.5875C10.0458 10.9792 9.85 11.45 9.85 12C9.85 12.55 10.0458 13.0208 10.4375 13.4125C10.8292 13.8042 11.3 14 11.85 14ZM19.8 28L19.35 25.9C19.0667 25.8 18.8042 25.6792 18.5625 25.5375C18.3208 25.3958 18.0833 25.2333 17.85 25.05L15.85 25.7L14.45 23.3L16.05 21.9C16.0167 21.6 16 21.3 16 21C16 20.7 16.0167 20.4 16.05 20.1L14.45 18.7L15.85 16.3L17.85 16.95C18.0833 16.7667 18.3208 16.6042 18.5625 16.4625C18.8042 16.3208 19.0667 16.2 19.35 16.1L19.8 14H22.6L23.05 16.1C23.3333 16.2 23.5958 16.3208 23.8375 16.4625C24.0792 16.6042 24.3167 16.7667 24.55 16.95L26.55 16.3L27.95 18.7L26.35 20.1C26.3833 20.4 26.4 20.7 26.4 21C26.4 21.3 26.3833 21.6 26.35 21.9L27.95 23.3L26.55 25.7L24.55 25.05C24.3167 25.2333 24.0792 25.3958 23.8375 25.5375C23.5958 25.6792 23.3333 25.8 23.05 25.9L22.6 28H19.8ZM21.2 24C22.0333 24 22.7417 23.7083 23.325 23.125C23.9083 22.5417 24.2 21.8333 24.2 21C24.2 20.1667 23.9083 19.4583 23.325 18.875C22.7417 18.2917 22.0333 18 21.2 18C20.3667 18 19.6583 18.2917 19.075 18.875C18.4917 19.4583 18.2 20.1667 18.2 21C18.2 21.8333 18.4917 22.5417 19.075 23.125C19.6583 23.7083 20.3667 24 21.2 24Z" fill="black"/>
</svg>
