<svg width="34" height="34" viewBox="0 0 34 34" xmlns="http://www.w3.org/2000/svg">
<circle cx="17" cy="17" r="17" fill="#C6D2FF"/>
<path d="M15 24.35V18.65L16.4 14.65C16.4833 14.4667 16.6042 14.3125 16.7625 14.1875C16.9208 14.0625 17.1167 14 17.35 14H24.65C24.8833 14 25.0833 14.0625 25.25 14.1875C25.4167 14.3125 25.5333 14.4667 25.6 14.65L27 18.65V24.35C27 24.5333 26.9375 24.6875 26.8125 24.8125C26.6875 24.9375 26.5333 25 26.35 25H25.65C25.4667 25 25.3125 24.9375 25.1875 24.8125C25.0625 24.6875 25 24.5333 25 24.35V23.5H17V24.35C17 24.5333 16.9375 24.6875 16.8125 24.8125C16.6875 24.9375 16.5333 25 16.35 25H15.65C15.4667 25 15.3125 24.9375 15.1875 24.8125C15.0625 24.6875 15 24.5333 15 24.35ZM17 17.5H25L24.3 15.5H17.7L17 17.5ZM18 21.5C18.2833 21.5 18.5208 21.4042 18.7125 21.2125C18.9042 21.0208 19 20.7833 19 20.5C19 20.2167 18.9042 19.9792 18.7125 19.7875C18.5208 19.5958 18.2833 19.5 18 19.5C17.7167 19.5 17.4792 19.5958 17.2875 19.7875C17.0958 19.9792 17 20.2167 17 20.5C17 20.7833 17.0958 21.0208 17.2875 21.2125C17.4792 21.4042 17.7167 21.5 18 21.5ZM24 21.5C24.2833 21.5 24.5208 21.4042 24.7125 21.2125C24.9042 21.0208 25 20.7833 25 20.5C25 20.2167 24.9042 19.9792 24.7125 19.7875C24.5208 19.5958 24.2833 19.5 24 19.5C23.7167 19.5 23.4792 19.5958 23.2875 19.7875C23.0958 19.9792 23 20.2167 23 20.5C23 20.7833 23.0958 21.0208 23.2875 21.2125C23.4792 21.4042 23.7167 21.5 24 21.5ZM9 25V24L10 23C9.16667 23 8.45833 22.7083 7.875 22.125C7.29167 21.5417 7 20.8333 7 20V12C7 10.9 7.49167 10.125 8.475 9.675C9.45833 9.225 11.1333 9 13.5 9C15.9667 9 17.6667 9.21667 18.6 9.65C19.5333 10.0833 20 10.8667 20 12V13H18V12H9V18H14V25H9ZM10 21C10.2833 21 10.5208 20.9042 10.7125 20.7125C10.9042 20.5208 11 20.2833 11 20C11 19.7167 10.9042 19.4792 10.7125 19.2875C10.5208 19.0958 10.2833 19 10 19C9.71667 19 9.47917 19.0958 9.2875 19.2875C9.09583 19.4792 9 19.7167 9 20C9 20.2833 9.09583 20.5208 9.2875 20.7125C9.47917 20.9042 9.71667 21 10 21ZM16.5 22H25.5V19H16.5V22Z" fill="black"/>
</svg>
