<svg width="34" height="34" viewBox="0 0 34 34" xmlns="http://www.w3.org/2000/svg">
<circle cx="17" cy="17" r="17" fill="#FFD6A7"/>
<path d="M9.5 17.125C8.8 17.125 8.20833 16.8833 7.725 16.4C7.24167 15.9167 7 15.325 7 14.625C7 13.925 7.24167 13.3333 7.725 12.85C8.20833 12.3667 8.8 12.125 9.5 12.125C10.2 12.125 10.7917 12.3667 11.275 12.85C11.7583 13.3333 12 13.925 12 14.625C12 15.325 11.7583 15.9167 11.275 16.4C10.7917 16.8833 10.2 17.125 9.5 17.125ZM14 13.125C13.3 13.125 12.7083 12.8833 12.225 12.4C11.7417 11.9167 11.5 11.325 11.5 10.625C11.5 9.925 11.7417 9.33333 12.225 8.85C12.7083 8.36667 13.3 8.125 14 8.125C14.7 8.125 15.2917 8.36667 15.775 8.85C16.2583 9.33333 16.5 9.925 16.5 10.625C16.5 11.325 16.2583 11.9167 15.775 12.4C15.2917 12.8833 14.7 13.125 14 13.125ZM20 13.125C19.3 13.125 18.7083 12.8833 18.225 12.4C17.7417 11.9167 17.5 11.325 17.5 10.625C17.5 9.925 17.7417 9.33333 18.225 8.85C18.7083 8.36667 19.3 8.125 20 8.125C20.7 8.125 21.2917 8.36667 21.775 8.85C22.2583 9.33333 22.5 9.925 22.5 10.625C22.5 11.325 22.2583 11.9167 21.775 12.4C21.2917 12.8833 20.7 13.125 20 13.125ZM24.5 17.125C23.8 17.125 23.2083 16.8833 22.725 16.4C22.2417 15.9167 22 15.325 22 14.625C22 13.925 22.2417 13.3333 22.725 12.85C23.2083 12.3667 23.8 12.125 24.5 12.125C25.2 12.125 25.7917 12.3667 26.275 12.85C26.7583 13.3333 27 13.925 27 14.625C27 15.325 26.7583 15.9167 26.275 16.4C25.7917 16.8833 25.2 17.125 24.5 17.125ZM11.65 27.125C10.9 27.125 10.2708 26.8375 9.7625 26.2625C9.25417 25.6875 9 25.0083 9 24.225C9 23.3583 9.29583 22.6 9.8875 21.95C10.4792 21.3 11.0667 20.6583 11.65 20.025C12.1333 19.5083 12.55 18.9458 12.9 18.3375C13.25 17.7292 13.6667 17.1583 14.15 16.625C14.5167 16.1917 14.9417 15.8333 15.425 15.55C15.9083 15.2667 16.4333 15.125 17 15.125C17.5667 15.125 18.0917 15.2583 18.575 15.525C19.0583 15.7917 19.4833 16.1417 19.85 16.575C20.3167 17.1083 20.7292 17.6833 21.0875 18.3C21.4458 18.9167 21.8667 19.4917 22.35 20.025C22.9333 20.6583 23.5208 21.3 24.1125 21.95C24.7042 22.6 25 23.3583 25 24.225C25 25.0083 24.7458 25.6875 24.2375 26.2625C23.7292 26.8375 23.1 27.125 22.35 27.125C21.45 27.125 20.5583 27.05 19.675 26.9C18.7917 26.75 17.9 26.675 17 26.675C16.1 26.675 15.2083 26.75 14.325 26.9C13.4417 27.05 12.55 27.125 11.65 27.125Z" fill="black"/>
</svg>
