<svg width="34" height="34" viewBox="0 0 34 34" xmlns="http://www.w3.org/2000/svg">
<circle cx="17" cy="17" r="17" fill="#FFC9C9"/>
<path d="M15.35 24.8L15.65 23.4C15.7 23.1833 15.8042 23.0042 15.9625 22.8625C16.1208 22.7208 16.3167 22.6333 16.55 22.6L19.65 22.35C19.8667 22.3167 20.0667 22.3583 20.25 22.475C20.4333 22.5917 20.5667 22.75 20.65 22.95L21.05 23.9C21.7 23.5167 22.2833 23.0542 22.8 22.5125C23.3167 21.9708 23.75 21.3667 24.1 20.7L23.8 20.55C23.6167 20.4167 23.4833 20.2542 23.4 20.0625C23.3167 19.8708 23.3 19.6667 23.35 19.45L24.05 16.4C24.1 16.2 24.2042 16.0333 24.3625 15.9C24.5208 15.7667 24.7 15.6833 24.9 15.65C24.8167 15.2333 24.7125 14.8292 24.5875 14.4375C24.4625 14.0458 24.3 13.6667 24.1 13.3C23.95 13.3833 23.7875 13.4208 23.6125 13.4125C23.4375 13.4042 23.2833 13.35 23.15 13.25L20.5 11.65C20.3167 11.5333 20.1833 11.375 20.1 11.175C20.0167 10.975 20 10.7667 20.05 10.55L20.25 9.7C19.7333 9.46667 19.2042 9.29167 18.6625 9.175C18.1208 9.05833 17.5667 9 17 9C16.7667 9 16.525 9.0125 16.275 9.0375C16.025 9.0625 15.7833 9.1 15.55 9.15L16.3 10.85C16.3833 11.05 16.4042 11.2583 16.3625 11.475C16.3208 11.6917 16.2167 11.8667 16.05 12L13.7 14.05C13.5333 14.2 13.3375 14.2833 13.1125 14.3C12.8875 14.3167 12.6833 14.2667 12.5 14.15L10.2 12.75C9.81667 13.3833 9.52083 14.0625 9.3125 14.7875C9.10417 15.5125 9 16.25 9 17C9 17.2667 9.03333 17.7 9.1 18.3L11.3 18.1C11.5333 18.0667 11.7458 18.1042 11.9375 18.2125C12.1292 18.3208 12.2667 18.4833 12.35 18.7L13.55 21.55C13.6333 21.75 13.6542 21.9583 13.6125 22.175C13.5708 22.3917 13.4667 22.5667 13.3 22.7L12.35 23.5C12.8 23.8333 13.2792 24.1083 13.7875 24.325C14.2958 24.5417 14.8167 24.7 15.35 24.8ZM17.15 20.5C16.9333 20.5333 16.7333 20.4917 16.55 20.375C16.3667 20.2583 16.2333 20.1 16.15 19.9L14.8 16.8C14.7167 16.6 14.7042 16.3917 14.7625 16.175C14.8208 15.9583 14.9333 15.7833 15.1 15.65L17.65 13.5C17.8 13.35 17.9833 13.2667 18.2 13.25C18.4167 13.2333 18.6167 13.2833 18.8 13.4L21.6 15.05C21.7833 15.1667 21.925 15.325 22.025 15.525C22.125 15.725 22.15 15.9333 22.1 16.15L21.3 19.4C21.25 19.6167 21.15 19.7958 21 19.9375C20.85 20.0792 20.6667 20.1667 20.45 20.2L17.15 20.5ZM17 27C15.6167 27 14.3167 26.7375 13.1 26.2125C11.8833 25.6875 10.825 24.975 9.925 24.075C9.025 23.175 8.3125 22.1167 7.7875 20.9C7.2625 19.6833 7 18.3833 7 17C7 15.6167 7.2625 14.3167 7.7875 13.1C8.3125 11.8833 9.025 10.825 9.925 9.925C10.825 9.025 11.8833 8.3125 13.1 7.7875C14.3167 7.2625 15.6167 7 17 7C18.3833 7 19.6833 7.2625 20.9 7.7875C22.1167 8.3125 23.175 9.025 24.075 9.925C24.975 10.825 25.6875 11.8833 26.2125 13.1C26.7375 14.3167 27 15.6167 27 17C27 18.3833 26.7375 19.6833 26.2125 20.9C25.6875 22.1167 24.975 23.175 24.075 24.075C23.175 24.975 22.1167 25.6875 20.9 26.2125C19.6833 26.7375 18.3833 27 17 27Z" fill="black"/>
</svg>
